# xmcd
#
# Track frame offsets:
#	150
#	13090
#	32687
#	43515
#	66972
#	81417
#	91952
#	113387
#	128365
#	145087
#
# Disc length: 2074
#
# Revision: 2
# Processed by: cddbd v1.5.1PL0 Copyright (c) Steve Scherf et al.
# Submitted via: DiscPlay 4.0.3
# Normalized: r1:DSETVAR1
#
DISCID=7608180a
DTITLE=Various Artist - New Country  Vol 4  No 10
DYEAR=1900
DGENRE=
TTITLE0=Merle Haggard - Swinging Doors
TTITLE1=Jesse Dayton - Don't Take Yesterday
TTITLE2=Dale Watson - Wine Don't Lie
TTITLE3=Don Williams - Restless
TTITLE4=MC Potts - I'm So Sorry
TTITLE5=Glen Campbell - Bad Seed
TTITLE6=Laurie Lewis - Fine Line
TTITLE7=Bruce Henderson - City Folk
TTITLE8=New Tradition - Always Have the Blues
TTITLE9=Doyle Lawson and Quicksilver - My Lord Is Writing All the Time
EXTD=
EXTT0=
EXTT1=
EXTT2=
EXTT3=
EXTT4=
EXTT5=
EXTT6=
EXTT7=
EXTT8=
EXTT9=
PLAYORDER=
